<svg width="25" height="24" viewBox="0 0 25 24" fill="none" xmlns="http://www.w3.org/2000/svg">
<path d="M20.5 7V17C20.5 21 19.5 22 15.5 22H9.5C5.5 22 4.5 21 4.5 17V7C4.5 3 5.5 2 9.5 2H15.5C19.5 2 20.5 3 20.5 7Z" stroke="url(#paint0_linear_1513_2981)" stroke-width="1.5" stroke-linecap="round" stroke-linejoin="round"/>
<path d="M14.5 5.5H10.5" stroke="url(#paint1_linear_1513_2981)" stroke-width="1.5" stroke-linecap="round" stroke-linejoin="round"/>
<path d="M12.5 19.1C13.356 19.1 14.05 18.406 14.05 17.55C14.05 16.694 13.356 16 12.5 16C11.6439 16 10.95 16.694 10.95 17.55C10.95 18.406 11.6439 19.1 12.5 19.1Z" stroke="url(#paint2_linear_1513_2981)" stroke-width="1.5" stroke-linecap="round" stroke-linejoin="round"/>
<defs>
<linearGradient id="paint0_linear_1513_2981" x1="7.10123" y1="6.10714" x2="18.9353" y2="7.10342" gradientUnits="userSpaceOnUse">
<stop stop-color="#4BBFE9"/>
<stop offset="0.525" stop-color="#4BBFE9"/>
<stop offset="1" stop-color="#007AFF"/>
</linearGradient>
<linearGradient id="paint1_linear_1513_2981" x1="11.1503" y1="5.70536" x2="13.6813" y2="6.77076" gradientUnits="userSpaceOnUse">
<stop stop-color="#4BBFE9"/>
<stop offset="0.525" stop-color="#4BBFE9"/>
<stop offset="1" stop-color="#007AFF"/>
</linearGradient>
<linearGradient id="paint2_linear_1513_2981" x1="11.454" y1="16.6366" x2="13.7378" y2="16.8769" gradientUnits="userSpaceOnUse">
<stop stop-color="#4BBFE9"/>
<stop offset="0.525" stop-color="#4BBFE9"/>
<stop offset="1" stop-color="#007AFF"/>
</linearGradient>
</defs>
</svg>
