<svg width="29" height="29" viewBox="0 0 29 29" fill="none" xmlns="http://www.w3.org/2000/svg">
<path d="M14.4717 12.0836C15.8011 12.0837 16.8818 13.1644 16.8818 14.5005C16.8816 15.8365 15.8009 16.9164 14.4717 16.9166C13.1424 16.9166 12.0618 15.8366 12.0615 14.5005C12.0615 13.1643 13.1422 12.0836 14.4717 12.0836Z" fill="white" stroke="#00B7FF" stroke-width="1.61111"/>
<path opacity="0.1" d="M14.4707 5.63922C19.352 5.63922 23.3125 9.60513 23.3125 14.5005C23.3123 19.3958 19.3519 23.3609 14.4707 23.3609C9.58963 23.3607 5.63006 19.3957 5.62988 14.5005C5.62988 9.60524 9.58952 5.6394 14.4707 5.63922Z" fill="white" stroke="#00B7FF" stroke-width="1.61111"/>
<path opacity="0.06" d="M14.4707 0.805664C22.0157 0.805928 28.1348 6.93537 28.1348 14.5C28.1348 22.0646 22.0157 28.1941 14.4707 28.1943C6.92548 28.1943 0.805664 22.0648 0.805664 14.5C0.805664 6.9352 6.92548 0.805664 14.4707 0.805664Z" fill="white" stroke="#00B7FF" stroke-width="1.61111"/>
</svg>
