<svg width="138" height="51" viewBox="0 0 138 51" fill="none" xmlns="http://www.w3.org/2000/svg">
<g clip-path="url(#clip0_0_479)">
<path d="M18.9764 39.9796C16.9004 40.2851 14.7878 40.3767 12.6025 40.6206L5.93688 24.2633V41.3226C3.86084 41.5057 1.96687 41.7498 0 41.9939V10.7439H5.53647L13.1123 28.4749V10.7439H18.9764V39.9796ZM30.4498 22.188C32.7081 22.188 36.1683 22.0964 38.2443 22.0964V26.9792C35.6582 26.9792 32.6352 26.9792 30.4498 27.0707V34.334C33.8737 34.151 37.2974 33.9066 40.7575 33.8151V38.5145L24.6219 39.5828V10.7439H40.7575V15.6267H30.4498V22.188V22.188ZM62.4292 15.6269H56.383V38.0878C54.4161 38.0878 52.4493 38.0878 50.5556 38.1486V15.6269H44.5094V10.7439H62.4295L62.4292 15.6269V15.6269ZM71.8991 21.8524H79.8759V26.7351H71.8991V37.8131H66.1803V10.7439H82.462V15.6267H71.8991V21.8524V21.8524ZM91.9319 33.5405C95.2465 33.6014 98.5972 33.8154 101.839 33.9677V38.7896C96.6306 38.5147 91.4221 38.2404 86.1043 38.1486V10.7439H91.9319V33.5405ZM106.756 39.1253C108.614 39.217 110.581 39.3085 112.475 39.4914V10.7439H106.756V39.1253V39.1253ZM138.007 10.7439L130.613 25.606L138.007 41.9939C135.822 41.7498 133.636 41.4141 131.451 41.1088L127.262 32.0758L123.001 40.3767C120.888 40.0712 118.849 39.9796 116.737 39.7355L124.24 25.4228L117.465 10.7439H123.729L127.554 18.9532L131.633 10.7439H138.007V10.7439Z" fill="#9D9FA1"/>
</g>
<defs>
<clipPath id="clip0_0_479">
<rect width="138" height="50" fill="white" transform="translate(0 0.327271)"/>
</clipPath>
</defs>
</svg>
