<svg width="146" height="51" viewBox="0 0 146 51" fill="none" xmlns="http://www.w3.org/2000/svg">
<g clip-path="url(#clip0_0_480)">
<path d="M21.9507 3.53467C9.86949 3.53467 0.0752869 13.3286 0.0752869 25.4098C0.0752869 37.4915 9.86949 47.2847 21.9507 47.2847C34.0332 47.2847 43.8263 37.4915 43.8263 25.4098C43.8263 13.3294 34.0332 3.53571 21.9504 3.53571L21.9507 3.53467ZM31.9826 35.0849C31.5908 35.7275 30.7496 35.9312 30.107 35.5368C24.9709 32.3995 18.5052 31.689 10.8906 33.4287C10.1568 33.5959 9.42542 33.1362 9.25824 32.4021C9.09027 31.6681 9.54819 30.9367 10.2838 30.7695C18.6167 28.8657 25.7645 29.6855 31.5307 33.2093C32.1733 33.6038 32.377 34.4423 31.9826 35.0849ZM34.6601 29.1285C34.1664 29.931 33.1163 30.1844 32.3144 29.6907C26.4343 26.0764 17.471 25.0297 10.516 27.1409C9.61402 27.4134 8.66135 26.905 8.38759 26.0046C8.11592 25.1026 8.62452 24.1518 9.52494 23.8775C17.4694 21.4669 27.3459 22.6346 34.0985 26.7841C34.9004 27.2778 35.1538 28.3279 34.6601 29.1288V29.1285ZM34.89 22.9261C27.8396 18.7385 16.2075 18.3534 9.4761 20.3965C8.39516 20.7243 7.25206 20.1141 6.92449 19.0331C6.59692 17.9517 7.20661 16.8094 8.28832 16.4808C16.0155 14.135 28.861 14.5882 36.9782 19.4069C37.9525 19.984 38.2712 21.2397 37.6939 22.2106C37.1192 23.1829 35.8602 23.5034 34.891 22.9261H34.89ZM59.591 23.7286C55.8138 22.8279 55.1424 22.1957 55.1424 20.8674C55.1424 19.6125 56.3231 18.768 58.0812 18.768C59.7843 18.768 61.4718 19.4093 63.2429 20.7295C63.2951 20.7695 63.363 20.7854 63.4283 20.775C63.4963 20.765 63.5537 20.7287 63.5929 20.6741L65.4371 18.0745C65.5129 17.9674 65.492 17.8198 65.3901 17.738C63.2821 16.0471 60.9102 15.2251 58.136 15.2251C54.0584 15.2251 51.2084 17.6724 51.2084 21.1741C51.2084 24.9292 53.6665 26.2588 57.914 27.2851C61.5267 28.1176 62.1379 28.8151 62.1379 30.0616C62.1379 31.4435 60.905 32.3029 58.9197 32.3029C56.715 32.3029 54.9152 31.5584 52.9038 29.8187C52.8541 29.7743 52.7862 29.756 52.7235 29.7586C52.6556 29.7638 52.5955 29.7952 52.5537 29.8448L50.4849 32.3055C50.3987 32.41 50.4091 32.5615 50.5084 32.6503C52.8489 34.7401 55.7276 35.8424 58.8361 35.8424C63.2298 35.8424 66.0693 33.4418 66.0693 29.7246C66.0771 26.5882 64.1989 24.851 59.5988 23.732L59.591 23.7286ZM76.0113 20.0036C74.107 20.0036 72.5449 20.7538 71.2545 22.2911V20.5608C71.2545 20.4241 71.1448 20.3129 71.009 20.3129H67.6262C67.4903 20.3129 67.3806 20.4241 67.3806 20.5608V39.7869C67.3806 39.9227 67.4903 40.035 67.6262 40.035H71.009C71.1448 40.035 71.2545 39.9227 71.2545 39.7869V33.7187C72.5449 35.1632 74.107 35.8712 76.0113 35.8712C79.5509 35.8712 83.1348 33.1466 83.1348 27.9381C83.1401 22.7286 79.5561 20.0033 76.014 20.0033L76.0113 20.0036ZM79.2009 27.9381C79.2009 30.5893 77.5682 32.4413 75.2277 32.4413C72.9159 32.4413 71.1709 30.5057 71.1709 27.9381C71.1709 25.3704 72.9159 23.4352 75.2277 23.4352C77.529 23.435 79.2009 25.3283 79.2009 27.9379V27.9381ZM92.3167 20.0036C87.7584 20.0036 84.1876 23.5133 84.1876 27.9948C84.1876 32.4283 87.7349 35.8999 92.2619 35.8999C96.8359 35.8999 100.417 32.4021 100.417 27.9381C100.417 23.4893 96.8594 20.0041 92.3167 20.0041V20.0036ZM92.3167 32.4675C89.8926 32.4675 88.0641 30.5187 88.0641 27.9368C88.0641 25.3432 89.8299 23.4611 92.2619 23.4611C94.7017 23.4611 96.5407 25.409 96.5407 27.9935C96.5407 30.5867 94.7644 32.4675 92.3167 32.4675ZM110.15 20.3129H106.428V16.5079C106.428 16.3716 106.318 16.2603 106.182 16.2603H102.8C102.664 16.2603 102.551 16.3716 102.551 16.5079V20.3129H100.927C100.791 20.3129 100.681 20.4241 100.681 20.5608V23.4674C100.681 23.6037 100.791 23.7153 100.927 23.7153H102.551V31.2371C102.551 34.2751 104.064 35.8163 107.05 35.8163C108.262 35.8163 109.267 35.5655 110.216 35.0274C110.294 34.9856 110.341 34.902 110.341 34.8132V32.0443C110.341 31.9607 110.297 31.8797 110.223 31.8353C110.15 31.7883 110.059 31.7857 109.983 31.8249C109.333 32.1514 108.703 32.3029 107.998 32.3029C106.914 32.3029 106.428 31.8092 106.428 30.7068V23.7166H110.15C110.286 23.7166 110.396 23.6053 110.396 23.4687V20.5623C110.401 20.4257 110.291 20.3144 110.153 20.3144L110.15 20.3129ZM123.117 20.3278V19.8604C123.117 18.4856 123.645 17.8725 124.826 17.8725C125.531 17.8725 126.098 18.0126 126.733 18.2241C126.811 18.2487 126.892 18.2364 126.955 18.1897C127.02 18.1429 127.056 18.0679 127.056 17.9885V15.1386C127.056 15.0297 126.989 14.9333 126.881 14.9012C126.213 14.7018 125.356 14.4973 124.071 14.4973C120.949 14.4973 119.296 16.2564 119.296 19.5825V20.2982H117.671C117.535 20.2982 117.423 20.4095 117.423 20.5459V23.4674C117.423 23.6037 117.535 23.7153 117.671 23.7153H119.296V35.3148C119.296 35.4532 119.408 35.5629 119.544 35.5629H122.924C123.062 35.5629 123.172 35.4532 123.172 35.3148V23.716H126.33L131.168 35.3148C130.62 36.532 130.079 36.775 129.342 36.775C128.747 36.775 128.117 36.5973 127.477 36.2447C127.417 36.2134 127.344 36.2081 127.281 36.2264C127.216 36.2499 127.161 36.2969 127.135 36.3596L125.988 38.8752C125.933 38.9954 125.98 39.1338 126.095 39.1965C127.292 39.8443 128.37 40.1212 129.705 40.1212C132.203 40.1212 133.584 38.9562 134.799 35.8267L140.666 20.6663C140.697 20.59 140.687 20.5038 140.64 20.4362C140.596 20.369 140.52 20.3285 140.439 20.3285H136.918C136.81 20.3285 136.716 20.3957 136.682 20.4947L133.075 30.7956L129.125 20.4879C129.089 20.392 128.997 20.3285 128.895 20.3285H123.117V20.3278ZM115.599 20.3129H112.217C112.081 20.3129 111.968 20.4241 111.968 20.5608V35.3148C111.968 35.4532 112.081 35.5629 112.217 35.5629H115.599C115.735 35.5629 115.847 35.4532 115.847 35.3148V20.5618C115.847 20.4252 115.738 20.3139 115.599 20.3139V20.3129ZM113.928 13.5945C112.587 13.5945 111.501 14.6791 111.501 16.0189C111.501 17.3595 112.587 18.4454 113.928 18.4454C115.268 18.4454 116.352 17.3595 116.352 16.0189C116.352 14.6794 115.265 13.5945 113.928 13.5945ZM143.555 25.0569C142.218 25.0569 141.175 23.982 141.175 22.6766C141.175 21.3713 142.231 20.2841 143.568 20.2841C144.906 20.2841 145.948 21.3588 145.948 22.6631C145.948 23.9684 144.893 25.0569 143.555 25.0569ZM143.568 20.5208C142.348 20.5208 141.426 21.4899 141.426 22.6766C141.426 23.8628 142.343 24.8189 143.555 24.8189C144.775 24.8189 145.697 23.8506 145.697 22.6631C145.697 21.4769 144.78 20.5208 143.568 20.5208ZM144.096 22.9078L144.77 23.8503H144.2L143.594 22.9857H143.075V23.8503H142.599V21.352H143.712C144.294 21.352 144.676 21.649 144.676 22.149C144.678 22.5586 144.441 22.8088 144.098 22.9078H144.096ZM143.694 21.7807H143.075V22.5709H143.694C144.002 22.5709 144.187 22.4196 144.187 22.1754C144.187 21.9183 144.002 21.7807 143.694 21.7807Z" fill="#9D9FA1"/>
</g>
<defs>
<clipPath id="clip0_0_480">
<rect width="145.833" height="50" fill="white" transform="translate(0 0.327271)"/>
</clipPath>
</defs>
</svg>
