<svg width="135" height="51" viewBox="0 0 135 51" fill="none" xmlns="http://www.w3.org/2000/svg">
<g clip-path="url(#clip0_0_478)">
<path d="M71.2409 14.8332C71.2409 16.3535 70.0163 17.5781 68.496 17.5781C66.9757 17.5781 65.7511 16.3535 65.7511 14.8332C65.7511 13.3129 66.9335 12.0883 68.496 12.0883C70.0585 12.1305 71.2409 13.3551 71.2409 14.8332ZM59.9234 20.3653C59.9234 20.6187 59.9234 21.041 59.9234 21.041C59.9234 21.041 58.6143 19.3518 55.8271 19.3518C51.2241 19.3518 47.6345 22.8568 47.6345 27.7132C47.6345 32.5274 51.1818 36.0747 55.8271 36.0747C58.6565 36.0747 59.9234 34.3433 59.9234 34.3433V35.0612C59.9234 35.3991 60.1768 35.6524 60.5146 35.6524H63.9352V19.7741C63.9352 19.7741 60.8102 19.7741 60.5146 19.7741C60.1768 19.7741 59.9234 20.0697 59.9234 20.3653ZM59.9234 30.5426C59.2899 31.4717 58.023 32.2741 56.5028 32.2741C53.8001 32.2741 51.7308 30.5849 51.7308 27.7132C51.7308 24.8416 53.8001 23.1524 56.5028 23.1524C57.9808 23.1524 59.3322 23.997 59.9234 24.8839V30.5426ZM66.469 19.7741H70.523V35.6524H66.469V19.7741ZM127.026 19.3518C124.239 19.3518 122.93 21.041 122.93 21.041V12.1305H118.876V35.6524C118.876 35.6524 122.001 35.6524 122.297 35.6524C122.635 35.6524 122.888 35.3568 122.888 35.0612V34.3433C122.888 34.3433 124.197 36.0747 126.984 36.0747C131.587 36.0747 135.177 32.5274 135.177 27.7132C135.177 22.8991 131.587 19.3518 127.026 19.3518ZM126.351 32.2318C124.788 32.2318 123.564 31.4295 122.93 30.5004V24.8416C123.564 23.997 124.915 23.1102 126.351 23.1102C129.053 23.1102 131.123 24.7994 131.123 27.671C131.123 30.5426 129.053 32.2318 126.351 32.2318ZM116.765 26.2352V35.6947H112.711V26.6997C112.711 24.0815 111.866 23.0258 109.586 23.0258C108.361 23.0258 107.094 23.6592 106.292 24.5883V35.6524H102.238V19.7741H105.447C105.785 19.7741 106.038 20.0697 106.038 20.3653V21.041C107.221 19.8163 108.783 19.3518 110.346 19.3518C112.119 19.3518 113.597 19.8585 114.78 20.872C116.216 22.0545 116.765 23.5747 116.765 26.2352ZM92.398 19.3518C89.6109 19.3518 88.3018 21.041 88.3018 21.041V12.1305H84.2477V35.6524C84.2477 35.6524 87.3727 35.6524 87.6683 35.6524C88.0061 35.6524 88.2595 35.3568 88.2595 35.0612V34.3433C88.2595 34.3433 89.5686 36.0747 92.3558 36.0747C96.9588 36.0747 100.548 32.5274 100.548 27.7132C100.591 22.8991 97.0011 19.3518 92.398 19.3518ZM91.7224 32.2318C90.1599 32.2318 88.9352 31.4295 88.3018 30.5004V24.8416C88.9352 23.997 90.2865 23.1102 91.7224 23.1102C94.4251 23.1102 96.4943 24.7994 96.4943 27.671C96.4943 30.5426 94.4251 32.2318 91.7224 32.2318ZM80.7426 19.3518C81.9673 19.3518 82.6007 19.5629 82.6007 19.5629V23.3214C82.6007 23.3214 79.2224 22.1812 77.1109 24.5883V35.6947H73.0568V19.7741C73.0568 19.7741 76.1818 19.7741 76.4774 19.7741C76.8153 19.7741 77.0686 20.0697 77.0686 20.3653V21.041C77.8288 20.1541 79.4757 19.3518 80.7426 19.3518ZM38.6396 34.2166C38.4284 33.7099 38.2173 33.1609 38.0061 32.6964C37.6683 31.9362 37.3305 31.2183 37.0349 30.5426L36.9926 30.5004C34.0788 24.166 30.9538 17.747 27.6599 11.4126L27.5332 11.1592C27.1953 10.5258 26.8575 9.85007 26.5197 9.1744C26.0974 8.41426 25.6751 7.6119 24.9994 6.85176C23.648 5.16257 21.7055 4.23352 19.6362 4.23352C17.5247 4.23352 15.6244 5.16257 14.2308 6.7673C13.5974 7.52744 13.1328 8.3298 12.7105 9.08994C12.3727 9.76561 12.0349 10.4413 11.697 11.0747L11.5703 11.3281C8.31866 17.6626 5.15143 24.0815 2.23757 30.416L2.19534 30.5004C1.89974 31.1761 1.5619 31.894 1.22406 32.6541C1.01291 33.1187 0.801764 33.6254 0.590615 34.1744C0.041629 35.7369 -0.12729 37.2149 0.0838587 38.7352C0.548386 41.9024 2.65987 44.5629 5.57372 45.7453C6.6717 46.2099 7.8119 46.421 8.99433 46.421C9.33217 46.421 9.75447 46.3788 10.0923 46.3366C11.4859 46.1676 12.9217 45.7031 14.3153 44.9008C16.0467 43.9295 17.6937 42.5359 19.5518 40.5089C21.4099 42.5359 23.0991 43.9295 24.7882 44.9008C26.1818 45.7031 27.6176 46.1676 29.0112 46.3366C29.3491 46.3788 29.7714 46.421 30.1092 46.421C31.2916 46.421 32.4741 46.2099 33.5298 45.7453C36.4859 44.5629 38.5551 41.8602 39.0197 38.7352C39.3575 37.2572 39.1886 35.7791 38.6396 34.2166ZM19.594 36.4126C17.3136 33.541 15.8355 30.8382 15.3288 28.5578C15.1176 27.5866 15.0754 26.742 15.2021 25.9818C15.2866 25.3062 15.5399 24.7149 15.8778 24.2082C16.6801 23.068 18.0315 22.3501 19.594 22.3501C21.1565 22.3501 22.5501 23.0257 23.3102 24.2082C23.648 24.7149 23.9014 25.3062 23.9859 25.9818C24.1126 26.742 24.0703 27.6288 23.8592 28.5578C23.3524 30.796 21.8744 33.4987 19.594 36.4126ZM36.4437 38.3974C36.148 40.5933 34.67 42.4937 32.6007 43.3382C31.5872 43.7605 30.4893 43.8872 29.3913 43.7605C28.3355 43.6339 27.2798 43.296 26.1818 42.6626C24.6616 41.818 23.1413 40.5089 21.3676 38.5663C24.1548 35.1457 25.844 32.0207 26.4774 29.2335C26.773 27.9244 26.8153 26.742 26.6886 25.644C26.5197 24.5883 26.1396 23.617 25.5484 22.7724C24.2393 20.872 22.0433 19.7741 19.594 19.7741C17.1447 19.7741 14.9487 20.9143 13.6396 22.7724C13.0484 23.617 12.6683 24.5883 12.4994 25.644C12.3305 26.742 12.3727 27.9666 12.7105 29.2335C13.344 32.0207 15.0754 35.1879 17.8203 38.6085C16.0889 40.5511 14.5264 41.8602 13.0062 42.7048C11.9082 43.3382 10.8524 43.6761 9.7967 43.8028C8.65649 43.9295 7.55852 43.7605 6.58724 43.3805C4.51798 42.5359 3.03994 40.6355 2.74433 38.4396C2.61764 37.3839 2.7021 36.3281 3.1244 35.1457C3.25109 34.7234 3.46224 34.3011 3.67339 33.7943C3.96899 33.1187 4.30683 32.4008 4.64467 31.6828L4.6869 31.5984C7.60075 25.3062 10.7257 18.8872 13.9774 12.6372L14.1041 12.3839C14.442 11.7504 14.7798 11.0747 15.1176 10.4413C15.4555 9.76561 15.8355 9.13217 16.3001 8.58318C17.1869 7.56967 18.3693 7.02068 19.6785 7.02068C20.9876 7.02068 22.17 7.56967 23.0568 8.58318C23.5214 9.13217 23.9014 9.76561 24.2393 10.4413C24.5771 11.0747 24.9149 11.7504 25.2528 12.3839L25.3795 12.6372C28.5889 18.9295 31.7139 25.3484 34.6278 31.6406V31.6828C34.9656 32.3585 35.2612 33.1187 35.5991 33.7943C35.8102 34.3011 36.0214 34.7234 36.148 35.1457C36.4859 36.2437 36.6126 37.2994 36.4437 38.3974Z" fill="#9D9FA1"/>
</g>
<defs>
<clipPath id="clip0_0_478">
<rect width="135" height="50.625" fill="white" transform="translate(0 0.0147705)"/>
</clipPath>
</defs>
</svg>
