<svg width="117" height="51" viewBox="0 0 117 51" fill="none" xmlns="http://www.w3.org/2000/svg">
<g clip-path="url(#clip0_0_481)">
<path fill-rule="evenodd" clip-rule="evenodd" d="M72.5254 39.8977C65.8099 44.8475 56.0762 47.4885 47.6957 47.4885C35.9448 47.4885 25.3661 43.1422 17.3628 35.9137C16.734 35.3452 17.2974 34.5706 18.052 35.0132C26.689 40.0385 37.3684 43.0618 48.3999 43.0618C55.8398 43.0618 64.0241 41.5225 71.5495 38.3282C72.6864 37.8453 73.6371 39.0727 72.5254 39.8977Z" fill="#9D9FA1"/>
<path fill-rule="evenodd" clip-rule="evenodd" d="M75.3173 36.7035C74.4622 35.6069 69.6431 36.1853 67.4801 36.4419C66.8211 36.5224 66.7205 35.9489 67.3141 35.5364C71.1522 32.8351 77.4502 33.6148 78.1846 34.5203C78.919 35.4308 77.9934 41.7439 74.3867 44.757C73.8334 45.2198 73.3052 44.9733 73.5517 44.3596C74.3616 42.3374 76.1775 37.8051 75.3173 36.7035Z" fill="#9D9FA1"/>
<path fill-rule="evenodd" clip-rule="evenodd" d="M67.631 16.4665V13.8407C67.631 13.4433 67.9328 13.1767 68.295 13.1767H80.0508C80.4281 13.1767 80.7299 13.4483 80.7299 13.8407V16.0892C80.7249 16.4665 80.408 16.9595 79.8446 17.7392L73.7529 26.4366C76.0165 26.3813 78.4059 26.7183 80.4583 27.8753C80.9211 28.1369 81.0468 28.5192 81.0821 28.8965V31.6983C81.0821 32.0807 80.6595 32.5283 80.2168 32.297C76.6 30.4005 71.7961 30.1943 67.797 32.3171C67.3895 32.5384 66.9619 32.0957 66.9619 31.7134V29.0524C66.9619 28.6248 66.9669 27.8954 67.3945 27.2465L74.4521 17.1255H68.3101C67.9328 17.1255 67.631 16.8589 67.631 16.4665Z" fill="#9D9FA1"/>
<path fill-rule="evenodd" clip-rule="evenodd" d="M24.7474 32.8503H21.1708C20.8287 32.8252 20.5571 32.5686 20.5319 32.2416V13.886C20.5319 13.5188 20.8388 13.227 21.2211 13.227H24.5562C24.9033 13.2421 25.18 13.5087 25.2051 13.8407V16.2402H25.2705C26.1408 13.9212 27.7756 12.8397 29.9789 12.8397C32.2174 12.8397 33.6158 13.9212 34.6219 16.2402C35.4871 13.9212 37.454 12.8397 39.5617 12.8397C41.0607 12.8397 42.7006 13.4584 43.7016 14.8468C44.8335 16.3911 44.6021 18.6346 44.6021 20.6015L44.597 32.1863C44.597 32.5535 44.2902 32.8503 43.9079 32.8503H40.3364C39.9792 32.8252 39.6925 32.5384 39.6925 32.1863V22.4577C39.6925 21.683 39.7629 19.7513 39.5919 19.0169C39.3253 17.7845 38.5254 17.4374 37.4892 17.4374C36.624 17.4374 35.7185 18.0159 35.3513 18.9415C34.9841 19.867 35.0193 21.4164 35.0193 22.4577V32.1863C35.0193 32.5535 34.7124 32.8503 34.3301 32.8503H30.7586C30.3964 32.8252 30.1147 32.5384 30.1147 32.1863L30.1097 22.4577C30.1097 20.4103 30.4467 17.3972 27.9064 17.3972C25.3359 17.3972 25.4365 20.3349 25.4365 22.4577V32.1863C25.4365 32.5535 25.1297 32.8503 24.7474 32.8503Z" fill="#9D9FA1"/>
<path fill-rule="evenodd" clip-rule="evenodd" d="M90.8508 12.8397C96.1578 12.8397 99.0301 17.3972 99.0301 23.1921C99.0301 28.7908 95.856 33.2326 90.8508 33.2326C85.6394 33.2326 82.8023 28.6751 82.8023 22.9959C82.8023 17.2815 85.6746 12.8397 90.8508 12.8397ZM90.881 16.5873C88.2451 16.5873 88.0791 20.1789 88.0791 22.4174C88.0791 24.6609 88.0439 29.4498 90.8508 29.4498C93.6225 29.4498 93.7533 25.5865 93.7533 23.2323C93.7533 21.683 93.6879 19.8318 93.2201 18.363C92.8177 17.0853 92.0179 16.5873 90.881 16.5873Z" fill="#9D9FA1"/>
<path fill-rule="evenodd" clip-rule="evenodd" d="M105.912 32.8503H102.35C101.993 32.8252 101.706 32.5384 101.706 32.1863L101.701 13.8256C101.732 13.4886 102.028 13.227 102.391 13.227H105.706C106.017 13.2421 106.274 13.4534 106.344 13.7401V16.547H106.41C107.411 14.0369 108.814 12.8397 111.284 12.8397C112.889 12.8397 114.453 13.4182 115.459 15.0027C116.395 16.4716 116.395 18.9415 116.395 20.7172V32.2718C116.355 32.5938 116.058 32.8503 115.706 32.8503H112.119C111.792 32.8252 111.521 32.5837 111.485 32.2718V22.3017C111.485 20.2946 111.717 17.3569 109.247 17.3569C108.377 17.3569 107.577 17.9404 107.179 18.8258C106.676 19.9475 106.611 21.0643 106.611 22.3017V32.1863C106.606 32.5535 106.294 32.8503 105.912 32.8503Z" fill="#9D9FA1"/>
<path fill-rule="evenodd" clip-rule="evenodd" d="M58.2595 24.0824C58.2595 25.4758 58.2947 26.6378 57.5904 27.8753C57.022 28.8814 56.1166 29.5001 55.1155 29.5001C53.7422 29.5001 52.9374 28.4538 52.9374 26.9095C52.9374 23.8611 55.6689 23.3078 58.2595 23.3078V24.0824ZM61.8662 32.8C61.6298 33.0113 61.2877 33.0264 61.0211 32.8855C59.834 31.8996 59.6177 31.4418 58.9688 30.5011C57.0069 32.5032 55.6135 33.1018 53.0732 33.1018C50.06 33.1018 47.7209 31.2456 47.7209 27.5282C47.7209 24.6257 49.2904 22.6488 51.5339 21.683C53.4756 20.8278 56.187 20.6769 58.2595 20.4405V19.9777C58.2595 19.1275 58.3249 18.1215 57.8218 17.3871C57.3892 16.7281 56.5542 16.4564 55.8147 16.4564C54.4515 16.4564 53.2392 17.1557 52.9424 18.6044C52.8821 18.9263 52.6456 19.2432 52.3187 19.2583L48.8528 18.8861C48.561 18.8207 48.234 18.5843 48.3195 18.1366C49.1143 13.9312 52.9173 12.6636 56.3178 12.6636C58.0583 12.6636 60.332 13.1264 61.7053 14.4443C63.4457 16.0691 63.2797 18.2372 63.2797 20.5964V26.17C63.2797 27.8451 63.9739 28.5795 64.6279 29.485C64.8542 29.8069 64.9045 30.1943 64.6128 30.4357C63.8834 31.0444 62.5855 32.1762 61.8712 32.8101L61.8662 32.8Z" fill="#9D9FA1"/>
<path fill-rule="evenodd" clip-rule="evenodd" d="M11.3717 24.0824C11.3717 25.4758 11.4069 26.6378 10.7026 27.8753C10.1342 28.8814 9.23378 29.5001 8.22771 29.5001C6.85443 29.5001 6.05461 28.4538 6.05461 26.9095C6.05461 23.8611 8.78608 23.3077 11.3717 23.3077V24.0824ZM14.9784 32.8C14.742 33.0112 14.3999 33.0263 14.1333 32.8855C12.9462 31.8996 12.7349 31.4418 12.0809 30.5011C10.1191 32.5032 8.73075 33.1018 6.1854 33.1018C3.17726 33.1018 0.83313 31.2456 0.83313 27.5282C0.83313 24.6257 2.40762 22.6488 4.64612 21.683C6.58782 20.8278 9.29917 20.6769 11.3717 20.4405V19.9777C11.3717 19.1275 11.4371 18.1215 10.9391 17.3871C10.5014 16.7281 9.66638 16.4564 8.93196 16.4564C7.56874 16.4564 6.3514 17.1557 6.05461 18.6044C5.99424 18.9263 5.75782 19.2432 5.43588 19.2583L1.96495 18.8861C1.67319 18.8207 1.35125 18.5843 1.43174 18.1366C2.23156 13.9312 6.02946 12.6636 9.42996 12.6636C11.1705 12.6636 13.4442 13.1264 14.8174 14.4443C16.5579 16.0691 16.3919 18.2372 16.3919 20.5964V26.17C16.3919 27.8451 17.0861 28.5795 17.7401 29.485C17.9715 29.8069 18.0218 30.1943 17.73 30.4357C17.0006 31.0444 15.7028 32.1762 14.9885 32.81L14.9784 32.8Z" fill="#9D9FA1"/>
</g>
<defs>
<clipPath id="clip0_0_481">
<rect width="116.083" height="50.6545" fill="white" transform="translate(0.833313)"/>
</clipPath>
</defs>
</svg>
